<svg xmlns="http://www.w3.org/2000/svg" width="750" height="1334" viewBox="0 0 750 1334">
    <defs>
        <clipPath id="ter5nvgaba">
            <path style="fill:none" d="M0 0h750v1334H0z"/>
        </clipPath>
    </defs>
    <g style="clip-path:url(#ter5nvgaba)">
        <g data-name="그룹 3557">
            <path data-name="패스 1860" d="M21.261 296.607a1.158 1.158 0 0 0 1.775 1.486 1.158 1.158 0 0 0-1.775-1.486z" transform="translate(21.298 77.07)" style="fill:#fbf5ec"/>
            <path data-name="패스 1861" d="M30.021 295.93c-2.392 2.856 2.042 6.58 4.439 3.719s-2.042-6.579-4.439-3.719z" transform="translate(22.99 76.808)" style="fill:#fbf5ec"/>
            <path data-name="패스 1862" d="M18.918 284.772c-3.351 4 2.859 9.211 6.214 5.206s-2.858-9.21-6.214-5.206z" transform="translate(20.684 74.463)" style="fill:#fbf5ec"/>
            <path data-name="패스 1863" d="M57.337 247.328c-4.48 0-4.487 6.962 0 6.962s4.487-6.962 0-6.962z" transform="translate(27.983 67.167)" style="fill:#fbf5ec"/>
            <path data-name="패스 1864" d="M-28.266 234.835c-3.548 0-3.554 5.514 0 5.514s3.554-5.514 0-5.514z" transform="translate(10.777 64.635)" style="fill:#fbf5ec"/>
            <path data-name="패스 1865" d="M-20.152 238.37c-2.838 0-2.843 4.411 0 4.411s2.844-4.411 0-4.411z" transform="translate(12.53 65.351)" style="fill:#fbf5ec"/>
            <path data-name="패스 1866" d="M-21.133 253.4c-4.967 0-4.975 7.72 0 7.72s4.977-7.72 0-7.72z" transform="translate(12.007 68.398)" style="fill:#fbf5ec"/>
        </g>
        <g data-name="그룹 3558">
            <path data-name="패스 1867" d="M423.981 110.392a1.742 1.742 0 0 0 0 3.482 1.742 1.742 0 0 0 0-3.482z" transform="translate(25.625 27.529)" style="fill:#fbf5ec"/>
            <path data-name="패스 1868" d="M429.9 120.812c-4.48 0-4.487 6.962 0 6.962s4.488-6.962 0-6.962z" transform="translate(26.484 29.64)" style="fill:#fbf5ec"/>
            <path data-name="패스 1869" d="M399.733 78.842c-3.334 0-3.339 5.18 0 5.18s3.339-5.18 0-5.18z" transform="translate(20.545 21.135)" style="fill:#fbf5ec"/>
            <path data-name="패스 1870" d="M429.021 86.71c-4.167 0-4.174 6.476 0 6.476s4.173-6.476 0-6.476z" transform="translate(26.353 22.729)" style="fill:#fbf5ec"/>
            <path data-name="패스 1871" d="M389.323 64.507c-3.334 0-3.34 5.181 0 5.181s3.338-5.181 0-5.181z" transform="translate(18.435 18.23)" style="fill:#fbf5ec"/>
            <path data-name="패스 1872" d="M409.09 17.233c-3.751 0-3.757 5.829 0 5.829s3.757-5.829 0-5.829z" transform="translate(22.378 8.65)" style="fill:#fbf5ec"/>
            <path data-name="패스 1873" d="M386.027 7.172c-3.36 0-3.366 5.221 0 5.221s3.365-5.221 0-5.221z" transform="translate(17.763 6.611)" style="fill:#fbf5ec"/>
        </g>
        <g data-name="그룹 3559">
            <path data-name="패스 1874" d="M59.449 653.836a1.741 1.741 0 0 0-3.254-1.235 1.741 1.741 0 0 0 3.254 1.235z" transform="translate(96.409 289.076)" style="fill:#fbf5ec"/>
            <path data-name="패스 1875" d="M48.278 655.8c1.589-4.188-4.919-6.663-6.51-2.468s4.919 6.668 6.51 2.468z" transform="translate(93.46 289.005)" style="fill:#fbf5ec"/>
            <path data-name="패스 1876" d="M97.875 642.411c1.181-3.117-3.661-4.96-4.844-1.838s3.66 4.96 4.844 1.838z" transform="translate(103.861 286.532)" style="fill:#fbf5ec"/>
            <path data-name="패스 1877" d="M80.382 667.052c1.478-3.9-4.575-6.2-6.055-2.3s4.573 6.202 6.055 2.3z" transform="translate(100.061 291.351)" style="fill:#fbf5ec"/>
            <path data-name="패스 1878" d="M114.969 637.757c1.182-3.116-3.661-4.959-4.844-1.836s3.66 4.96 4.844 1.836z" transform="translate(107.325 285.589)" style="fill:#fbf5ec"/>
            <path data-name="패스 1879" d="M152.289 673.026c1.33-3.508-4.119-5.58-5.452-2.067s4.119 5.58 5.452 2.067z" transform="translate(114.76 292.649)" style="fill:#fbf5ec"/>
            <path data-name="패스 1880" d="M169.756 655.006c1.192-3.141-3.689-5-4.882-1.851s3.689 4.998 4.882 1.851z" transform="translate(118.42 289.079)" style="fill:#fbf5ec"/>
        </g>
        <g data-name="그룹 3560">
            <path data-name="패스 1881" d="M575.194 168.509a1.158 1.158 0 0 0-.229 2.3 1.158 1.158 0 0 0 .229-2.3z" transform="translate(101.192 52.192)" style="fill:#fbf5ec"/>
            <path data-name="패스 1882" d="M581.048 175.249c-3.708-.367-4.284 5.4-.57 5.763s4.284-5.395.57-5.763z" transform="translate(102.003 53.556)" style="fill:#fbf5ec"/>
            <path data-name="패스 1883" d="M584.247 159.713c-5.192-.514-6 7.553-.8 8.067s5.999-7.554.8-8.067z" transform="translate(102.401 50.406)" style="fill:#fbf5ec"/>
            <path data-name="패스 1884" d="M636.748 170.394c-2.524-3.7-8.279.218-5.751 3.924s8.28-.218 5.751-3.924z" transform="translate(112.623 52.274)" style="fill:#fbf5ec"/>
            <path data-name="패스 1885" d="M598.667 92.687c-2-2.932-6.558.171-4.556 3.108s6.559-.173 4.556-3.108z" transform="translate(105.175 36.589)" style="fill:#fbf5ec"/>
            <path data-name="패스 1886" d="M600.2 101.416c-1.6-2.345-5.247.137-3.644 2.486s5.244-.137 3.644-2.486z" transform="translate(105.691 38.406)" style="fill:#fbf5ec"/>
            <path data-name="패스 1887" d="M587.588 108.975c-2.8-4.1-9.181.241-6.377 4.351s9.181-.241 6.377-4.351z" transform="translate(102.52 39.794)" style="fill:#fbf5ec"/>
        </g>
        <g data-name="그룹 3561">
            <path data-name="패스 1888" d="M554.609 654.1a1.159 1.159 0 0 0-.228 2.305 1.159 1.159 0 0 0 .228-2.305z" transform="translate(-11.812 348.599)" style="fill:#fbf5ec"/>
            <path data-name="패스 1889" d="M560.463 660.842c-3.708-.367-4.284 5.4-.57 5.762s4.284-5.395.57-5.762z" transform="translate(-11.001 349.963)" style="fill:#fbf5ec"/>
            <path data-name="패스 1890" d="M563.662 645.3c-5.191-.514-6 7.553-.8 8.067s5.999-7.547.8-8.067z" transform="translate(-10.603 346.813)" style="fill:#fbf5ec"/>
            <path data-name="패스 1891" d="M616.164 655.987c-2.526-3.7-8.28.216-5.751 3.923s8.279-.217 5.751-3.923z" transform="translate(-.381 348.68)" style="fill:#fbf5ec"/>
            <path data-name="패스 1892" d="M578.081 578.279c-2-2.931-6.558.172-4.554 3.108s6.558-.173 4.554-3.108z" transform="translate(-7.829 332.995)" style="fill:#fbf5ec"/>
            <path data-name="패스 1893" d="M579.615 587.008c-1.6-2.345-5.247.138-3.644 2.487s5.246-.138 3.644-2.487z" transform="translate(-7.314 334.812)" style="fill:#fbf5ec"/>
            <path data-name="패스 1894" d="M567 594.567c-2.8-4.1-9.182.24-6.378 4.351s9.185-.24 6.378-4.351z" transform="translate(-10.484 336.201)" style="fill:#fbf5ec"/>
        </g>
        <g data-name="그룹 3562">
            <path data-name="패스 1895" d="M79.945 6.409A1.159 1.159 0 0 0 78.263 8a1.159 1.159 0 0 0 1.682-1.591z" transform="translate(-38.041 78.747)" style="fill:#fbf5ec"/>
            <path data-name="패스 1896" d="M80.222 15.222c-2.56-2.707-6.771 1.269-4.206 3.98s6.772-1.269 4.206-3.98z" transform="translate(-38.594 80.423)" style="fill:#fbf5ec"/>
            <path data-name="패스 1897" d="M93 5.5c-3.585-3.788-9.479 1.776-5.889 5.572S96.591 9.3 93 5.5z" transform="translate(-36.41 78.38)" style="fill:#fbf5ec"/>
            <path data-name="패스 1898" d="M125.553 47.981c.517-4.45-6.4-5.26-6.915-.8s6.397 5.257 6.915.8z" transform="translate(-29.8 86.481)" style="fill:#fbf5ec"/>
            <path data-name="패스 1899" d="M147.59-35.621c.409-3.525-5.068-4.167-5.478-.637s5.066 4.167 5.478.637z" transform="translate(-25.042 69.698)" style="fill:#fbf5ec"/>
            <path data-name="패스 1900" d="M142.945-27.98c.327-2.82-4.054-3.334-4.382-.51s4.054 3.333 4.382.51z" transform="translate(-25.76 71.367)" style="fill:#fbf5ec"/>
            <path data-name="패스 1901" d="M128.713-30.656c.574-4.934-7.094-5.834-7.668-.892s7.093 5.834 7.668.892z" transform="translate(-29.313 70.462)" style="fill:#fbf5ec"/>
        </g>
        <g data-name="그룹 3563">
            <path data-name="패스 1902" d="M350.42 816.8a1.159 1.159 0 0 0-2.28-.411 1.159 1.159 0 0 0 2.28.411z" transform="translate(274.928 327.302)" style="fill:#fbf5ec"/>
            <path data-name="패스 1903" d="M343.84 822.122c.663-3.666-5.035-4.7-5.7-1.03s5.036 4.708 5.7 1.03z" transform="translate(272.896 327.977)" style="fill:#fbf5ec"/>
            <path data-name="패스 1904" d="M359.476 826.571c.928-5.133-7.049-6.583-7.977-1.441s7.048 6.584 7.977 1.441z" transform="translate(275.598 328.609)" style="fill:#fbf5ec"/>
            <path data-name="패스 1905" d="M344.412 878.04c3.891-2.22.446-8.271-3.45-6.046s-.446 8.27 3.45 6.046z" transform="translate(273.132 338.658)" style="fill:#fbf5ec"/>
            <path data-name="패스 1906" d="M424.669 846.292c3.082-1.759.354-6.551-2.732-4.79s-.354 6.55 2.732 4.79z" transform="translate(289.613 332.499)" style="fill:#fbf5ec"/>
            <path data-name="패스 1907" d="M415.654 847.113c2.465-1.407.283-5.241-2.188-3.832s-.282 5.242 2.188 3.832z" transform="translate(287.952 332.876)" style="fill:#fbf5ec"/>
            <path data-name="패스 1908" d="M409.7 833.96c4.314-2.462.5-9.171-3.827-6.7s-.493 9.167 3.827 6.7z" transform="translate(286.248 329.581)" style="fill:#fbf5ec"/>
        </g>
        <path d="M-44.228 402.558c52.4-.8 89.648 54.7 95.207 106.811S41.243 613.563 40.8 665.966s20.873 112.078 70.474 128.989c24.051 8.2 50.9 4.848 74.876 13.256a81.146 81.146 0 0 1 49.6 50.917c6.724 20.921 4.563 43.524 6.787 65.387s10.846 45.567 30.662 55.067" transform="translate(8.083 438.623)" style="stroke:#fff;stroke-linecap:round;stroke-linejoin:round;fill:none"/>
        <path d="M423.729 153.053c-41.708-14.373-80.675-39.16-124.583-45.436-93.216-13.323-172.384 50.821-206.781 138.059-21.575 54.724 2.406 114.061-7.985 169.96-11.466 61.69-49.718 129.68-32.252 193.421 32.166 117.391 180.106 144.9 279.844 137.581 48.692-3.571 94.283 9.964 142.773 11.542 97.761 3.18 189.931-76.371 186.909-181.418-1.189-41.365-31.483-74.789-36.9-115.255-5.744-42.887 3.947-85.4 5.684-128.086 3.531-86.779-41.5-150.223-123.734-164.75-27.541-4.864-38.432-.271-82.975-15.618z" transform="translate(26.698 158.499)" style="fill:#f4d9d5;mix-blend-mode:soft-light;isolation:isolate"/>
        <path d="M718.4 358.555c-27.62-.876-53.94-13.25-75.624-30.379-54.914-43.378-73.738-93.648-77.027-161.663-1.555-32.16-7.543-66.842-30.987-88.912-37.416-35.221-98.885-21.908-145.987-42.447-45.019-19.632-71.589-69.88-73.025-118.972" transform="translate(81.033 .06)" style="stroke:#fff;stroke-linecap:round;stroke-linejoin:round;fill:none"/>
    </g>
</svg>
